<?xml version="1.0" encoding="utf-8"?><svg xmlns="http://www.w3.org/2000/svg" xmlns:xlink="http://www.w3.org/1999/xlink"><symbol viewBox="0 0 451.847 451.847" id="arrow-down" xmlns="http://www.w3.org/2000/svg"><path d="M225.923 354.706c-8.098 0-16.195-3.092-22.369-9.263L9.27 151.157c-12.359-12.359-12.359-32.397 0-44.751 12.354-12.354 32.388-12.354 44.748 0l171.905 171.915 171.906-171.909c12.359-12.354 32.391-12.354 44.744 0 12.365 12.354 12.365 32.392 0 44.751L248.292 345.449c-6.177 6.172-14.274 9.257-22.369 9.257z"/></symbol><symbol viewBox="0 0 512 512" id="arrow-left" xmlns="http://www.w3.org/2000/svg"><path d="M492 236H68.442l70.164-69.824c7.829-7.792 7.859-20.455.067-28.284-7.792-7.83-20.456-7.859-28.285-.068l-104.504 104-.018.019c-7.809 7.792-7.834 20.496-.002 28.314l.018.019 104.504 104c7.828 7.79 20.492 7.763 28.285-.068 7.792-7.829 7.762-20.492-.067-28.284L68.442 276H492c11.046 0 20-8.954 20-20s-8.954-20-20-20z"/></symbol><symbol viewBox="0 0 512 512" id="check" xmlns="http://www.w3.org/2000/svg"><path d="M504.502 75.496c-9.997-9.998-26.205-9.998-36.204 0L161.594 382.203 43.702 264.311c-9.997-9.998-26.205-9.997-36.204 0-9.998 9.997-9.998 26.205 0 36.203l135.994 135.992c9.994 9.997 26.214 9.99 36.204 0L504.502 111.7c9.998-9.997 9.997-26.206 0-36.204z"/></symbol><symbol viewBox="0 -46 417.813 417" id="check_bold" xmlns="http://www.w3.org/2000/svg"><path d="M159.988 318.582c-3.988 4.012-9.43 6.25-15.082 6.25s-11.094-2.238-15.082-6.25L9.375 198.113c-12.5-12.5-12.5-32.77 0-45.246l15.082-15.086c12.504-12.5 32.75-12.5 45.25 0l75.2 75.203L348.104 9.781c12.504-12.5 32.77-12.5 45.25 0l15.082 15.086c12.5 12.5 12.5 32.766 0 45.246zm0 0"/></symbol><symbol viewBox="0 0 17.17 17.17" id="close" xmlns="http://www.w3.org/2000/svg"><defs><clipPath id="ea"><path d="M11.419 8.586l5.312-5.312a1.5 1.5 0 000-2.124l-.709-.709a1.5 1.5 0 00-2.125 0L8.586 5.753 3.274.44a1.5 1.5 0 00-2.124 0l-.709.708a1.5 1.5 0 000 2.125l5.312 5.313L.442 13.9a1.5 1.5 0 000 2.125l.708.708a1.5 1.5 0 002.124 0l5.312-5.312L13.9 16.73a1.5 1.5 0 002.125 0l.708-.708a1.5 1.5 0 000-2.125zm0 0" class="ecls-1" transform="translate(675.639 72.64)"/></clipPath></defs><g clip-path="url(#ea)" transform="translate(-675.639 -72.639)"><path d="M685.797 81.225l6.686-6.686a1.112 1.112 0 00-1.573-1.573l-6.686 6.686-6.685-6.686a1.113 1.113 0 00-1.574 1.573l6.686 6.686-6.686 6.686a1.113 1.113 0 101.574 1.573l6.686-6.686 6.686 6.686a1.112 1.112 0 001.573-1.573zm0 0" class="ecls-1"/></g></symbol><symbol viewBox="0 0 512.001 512.001" id="eye_close" xmlns="http://www.w3.org/2000/svg"><path d="M316.332 195.662c-4.16-4.16-10.923-4.16-15.083 0s-4.16 10.944 0 15.083c12.075 12.075 18.752 28.139 18.752 45.248 0 35.285-28.715 64-64 64-17.109 0-33.173-6.656-45.248-18.752-4.16-4.16-10.923-4.16-15.083 0-4.16 4.139-4.16 10.923 0 15.083 16.085 16.128 37.525 25.003 60.331 25.003 47.061 0 85.333-38.272 85.333-85.333 0-22.807-8.874-44.247-25.002-60.332zm-45.462-23.531c-4.843-.853-9.792-1.472-14.869-1.472-47.061 0-85.333 38.272-85.333 85.333 0 5.077.619 10.027 1.493 14.869.917 5.163 5.419 8.811 10.475 8.811.619 0 1.237-.043 1.877-.171 5.781-1.024 9.664-6.571 8.64-12.352-.661-3.627-1.152-7.317-1.152-11.157 0-35.285 28.715-64 64-64 3.84 0 7.531.491 11.157 1.131 5.675 1.152 11.328-2.859 12.352-8.64 1.024-5.781-2.858-11.328-8.64-12.352z"/><path d="M509.462 249.102c-2.411-2.859-60.117-70.208-139.712-111.445-5.163-2.709-11.669-.661-14.379 4.587-2.709 5.227-.661 11.669 4.587 14.379 61.312 31.744 110.293 81.28 127.04 99.371-25.429 27.541-125.504 128-230.997 128-35.797 0-71.872-8.64-107.264-25.707-5.248-2.581-11.669-.341-14.229 4.971-2.581 5.291-.341 11.669 4.971 14.229 38.293 18.496 77.504 27.84 116.523 27.84 131.435 0 248.555-136.619 253.483-142.443 3.369-3.969 3.348-9.793-.023-13.782zM325.996 118.947c-24.277-8.171-47.829-12.288-69.995-12.288-131.435 0-248.555 136.619-253.483 142.443-3.115 3.669-3.371 9.003-.597 12.992 1.472 2.112 36.736 52.181 97.856 92.779a10.48 10.48 0 005.888 1.792c3.435 0 6.827-1.664 8.875-4.8 3.264-4.885 1.92-11.52-2.987-14.763-44.885-29.845-75.605-65.877-87.104-80.533 24.555-26.667 125.291-128.576 231.552-128.576 19.861 0 41.131 3.755 63.189 11.157 5.589 2.005 11.648-1.088 13.504-6.699 1.878-5.589-1.109-11.626-6.698-13.504z"/><path d="M444.865 67.128c-4.16-4.16-10.923-4.16-15.083 0L67.116 429.795c-4.16 4.16-4.16 10.923 0 15.083a10.716 10.716 0 007.552 3.115c2.731 0 5.461-1.045 7.531-3.115L444.865 82.211c4.16-4.16 4.16-10.923 0-15.083z"/></symbol><symbol viewBox="0 0 511.992 511.992" id="eye_open" xmlns="http://www.w3.org/2000/svg"><path d="M510.096 249.937c-4.032-5.867-100.928-143.275-254.101-143.275-131.435 0-248.555 136.619-253.483 142.443-3.349 3.968-3.349 9.792 0 13.781C7.44 268.71 124.56 405.329 255.995 405.329S504.549 268.71 509.477 262.886c3.094-3.669 3.371-8.981.619-12.949zM255.995 383.996c-105.365 0-205.547-100.48-230.997-128 25.408-27.541 125.483-128 230.997-128 123.285 0 210.304 100.331 231.552 127.424-24.534 26.645-125.291 128.576-231.552 128.576z"/><path d="M255.995 170.662c-47.061 0-85.333 38.272-85.333 85.333s38.272 85.333 85.333 85.333 85.333-38.272 85.333-85.333-38.272-85.333-85.333-85.333zm0 149.334c-35.285 0-64-28.715-64-64s28.715-64 64-64 64 28.715 64 64-28.715 64-64 64z"/></symbol><symbol viewBox="0 0 56.966 56.966" id="loupe" xmlns="http://www.w3.org/2000/svg"><path d="M55.146 51.887L41.588 37.786A22.926 22.926 0 0046.984 23c0-12.682-10.318-23-23-23s-23 10.318-23 23 10.318 23 23 23c4.761 0 9.298-1.436 13.177-4.162l13.661 14.208c.571.593 1.339.92 2.162.92.779 0 1.518-.297 2.079-.837a3.004 3.004 0 00.083-4.242zM23.984 6c9.374 0 17 7.626 17 17s-7.626 17-17 17-17-7.626-17-17 7.626-17 17-17z"/></symbol><symbol viewBox="0 0 473.806 473.806" id="phone" xmlns="http://www.w3.org/2000/svg"><path d="M374.456 293.506c-9.7-10.1-21.4-15.5-33.8-15.5-12.3 0-24.1 5.3-34.2 15.4l-31.6 31.5c-2.6-1.4-5.2-2.7-7.7-4-3.6-1.8-7-3.5-9.9-5.3-29.6-18.8-56.5-43.3-82.3-75-12.5-15.8-20.9-29.1-27-42.6 8.2-7.5 15.8-15.3 23.2-22.8 2.8-2.8 5.6-5.7 8.4-8.5 21-21 21-48.2 0-69.2l-27.3-27.3c-3.1-3.1-6.3-6.3-9.3-9.5-6-6.2-12.3-12.6-18.8-18.6-9.7-9.6-21.3-14.7-33.5-14.7s-24 5.1-34 14.7l-.2.2-34 34.3c-12.8 12.8-20.1 28.4-21.7 46.5-2.4 29.2 6.2 56.4 12.8 74.2 16.2 43.7 40.4 84.2 76.5 127.6 43.8 52.3 96.5 93.6 156.7 122.7 23 10.9 53.7 23.8 88 26 2.1.1 4.3.2 6.3.2 23.1 0 42.5-8.3 57.7-24.8.1-.2.3-.3.4-.5 5.2-6.3 11.2-12 17.5-18.1 4.3-4.1 8.7-8.4 13-12.9 9.9-10.3 15.1-22.3 15.1-34.6 0-12.4-5.3-24.3-15.4-34.3l-54.9-55.1zm35.8 105.3c-.1 0-.1.1 0 0-3.9 4.2-7.9 8-12.2 12.2-6.5 6.2-13.1 12.7-19.3 20-10.1 10.8-22 15.9-37.6 15.9-1.5 0-3.1 0-4.6-.1-29.7-1.9-57.3-13.5-78-23.4-56.6-27.4-106.3-66.3-147.6-115.6-34.1-41.1-56.9-79.1-72-119.9-9.3-24.9-12.7-44.3-11.2-62.6 1-11.7 5.5-21.4 13.8-29.7l34.1-34.1c4.9-4.6 10.1-7.1 15.2-7.1 6.3 0 11.4 3.8 14.6 7l.3.3c6.1 5.7 11.9 11.6 18 17.9 3.1 3.2 6.3 6.4 9.5 9.7l27.3 27.3c10.6 10.6 10.6 20.4 0 31-2.9 2.9-5.7 5.8-8.6 8.6-8.4 8.6-16.4 16.6-25.1 24.4-.2.2-.4.3-.5.5-8.6 8.6-7 17-5.2 22.7l.3.9c7.1 17.2 17.1 33.4 32.3 52.7l.1.1c27.6 34 56.7 60.5 88.8 80.8 4.1 2.6 8.3 4.7 12.3 6.7 3.6 1.8 7 3.5 9.9 5.3.4.2.8.5 1.2.7 3.4 1.7 6.6 2.5 9.9 2.5 8.3 0 13.5-5.2 15.2-6.9l34.2-34.2c3.4-3.4 8.8-7.5 15.1-7.5 6.2 0 11.3 3.9 14.4 7.3l.2.2 55.1 55.1c10.3 10.2 10.3 20.7.1 31.3zm-154.2-286.1c26.2 4.4 50 16.8 69 35.8s31.3 42.8 35.8 69c1.1 6.6 6.8 11.2 13.3 11.2.8 0 1.5-.1 2.3-.2 7.4-1.2 12.3-8.2 11.1-15.6-5.4-31.7-20.4-60.6-43.3-83.5s-51.8-37.9-83.5-43.3c-7.4-1.2-14.3 3.7-15.6 11s3.5 14.4 10.9 15.6zm217.2 96.3c-8.9-52.2-33.5-99.7-71.3-137.5s-85.3-62.4-137.5-71.3c-7.3-1.3-14.2 3.7-15.5 11-1.2 7.4 3.7 14.3 11.1 15.6 46.6 7.9 89.1 30 122.9 63.7 33.8 33.8 55.8 76.3 63.7 122.9 1.1 6.6 6.8 11.2 13.3 11.2.8 0 1.5-.1 2.3-.2 7.3-1.1 12.3-8.1 11-15.4z"/></symbol><symbol viewBox="0 0 32 28" id="twitter" xmlns="http://www.w3.org/2000/svg"><path d="M31.937 4.093a13.358 13.358 0 01-3.765 1.032 6.603 6.603 0 002.885-3.63 13.682 13.682 0 01-4.172 1.578 6.56 6.56 0 00-11.178 5.973C10.254 8.791 5.42 6.171 2.187 2.213a6.458 6.458 0 00-.89 3.303 6.555 6.555 0 002.915 5.457 6.519 6.519 0 01-2.968-.817v.08a6.567 6.567 0 005.26 6.436 6.758 6.758 0 01-1.724.23c-.421 0-.823-.042-1.224-.116a6.59 6.59 0 006.14 4.557 13.17 13.17 0 01-8.135 2.802 13 13 0 01-1.563-.088 18.656 18.656 0 0010.079 2.948c12.067 0 18.661-9.995 18.661-18.652 0-.276 0-.557-.021-.839a13.13 13.13 0 003.281-3.396l-.061-.025z"/></symbol><symbol viewBox="0 0 512 512" id="user" xmlns="http://www.w3.org/2000/svg"><path d="M437.02 330.98c-27.883-27.882-61.071-48.523-97.281-61.018C378.521 243.251 404 198.548 404 148 404 66.393 337.607 0 256 0S108 66.393 108 148c0 50.548 25.479 95.251 64.262 121.962-36.21 12.495-69.398 33.136-97.281 61.018C26.629 379.333 0 443.62 0 512h40c0-119.103 96.897-216 216-216s216 96.897 216 216h40c0-68.38-26.629-132.667-74.98-181.02zM256 256c-59.551 0-108-48.448-108-108S196.449 40 256 40s108 48.448 108 108-48.449 108-108 108z"/></symbol><symbol viewBox="0 0 472 472" id="user-2" xmlns="http://www.w3.org/2000/svg"><path d="M236 0C105.868 0 0 105.868 0 236c0 56.992 20.312 109.332 54.068 150.16.08.12.096.268.188.38a235.968 235.968 0 0089.1 66.492c.396.172.788.352 1.188.52a230.089 230.089 0 008.344 3.296c1.108.42 2.212.84 3.328 1.244a229.17 229.17 0 007.284 2.468c1.568.508 3.14 1 4.72 1.472 2.164.648 4.332 1.268 6.516 1.856 1.916.516 3.848.996 5.784 1.464 1.964.472 3.924.944 5.9 1.364 2.208.476 4.44.892 6.672 1.304 1.788.328 3.572.672 5.372.96 2.484.4 4.992.72 7.504 1.04 1.604.204 3.204.44 4.816.612 2.84.304 5.704.512 8.572.712 1.324.092 2.636.232 3.964.304 4.2.224 8.424.352 12.68.352s8.48-.128 12.68-.348c1.328-.072 2.64-.208 3.964-.304 2.868-.2 5.732-.408 8.572-.712 1.612-.172 3.212-.408 4.816-.612 2.508-.32 5.016-.644 7.504-1.04 1.8-.288 3.584-.632 5.372-.96 2.232-.412 4.46-.828 6.668-1.304a247.42 247.42 0 005.904-1.364c1.936-.468 3.864-.948 5.784-1.464a228.281 228.281 0 006.516-1.856c1.58-.476 3.152-.968 4.72-1.472a239.724 239.724 0 007.284-2.468c1.116-.404 2.22-.824 3.328-1.244 2.8-1.052 5.588-2.136 8.344-3.296.4-.168.792-.348 1.188-.52a235.968 235.968 0 0089.1-66.492c.092-.112.108-.26.188-.38C451.688 345.332 472 292.992 472 236 472 105.868 366.132 0 236 0zm89.728 445.584c-.548.232-1.088.48-1.636.708a223.576 223.576 0 01-8.012 3.164c-1.076.404-2.152.808-3.236 1.196a229.044 229.044 0 01-11.572 3.788c-2.12.636-4.248 1.244-6.392 1.82-1.82.484-3.648.932-5.48 1.372-1.916.46-3.832.92-5.764 1.332-2.112.448-4.236.84-6.364 1.232-1.732.32-3.46.652-5.208.932-2.384.38-4.784.684-7.184.988-1.552.196-3.096.428-4.656.592-2.732.288-5.48.484-8.228.676-1.272.088-2.532.224-3.808.292-4.052.204-8.112.324-12.188.324s-8.136-.12-12.18-.332c-1.276-.068-2.536-.2-3.808-.292-2.748-.192-5.5-.388-8.228-.676-1.564-.164-3.104-.396-4.656-.592-2.4-.304-4.8-.608-7.184-.988-1.748-.28-3.472-.616-5.208-.932-2.128-.388-4.252-.78-6.364-1.232a231.615 231.615 0 01-5.764-1.332c-1.832-.44-3.66-.888-5.48-1.372a212.713 212.713 0 01-6.392-1.82 229.044 229.044 0 01-11.572-3.788c-1.084-.388-2.156-.792-3.236-1.196a220.647 220.647 0 01-8.012-3.164c-.548-.228-1.092-.476-1.636-.708-32.868-14.124-61.748-35.768-84.516-62.748 15.464-59.8 61.376-108 120.516-126.508.276.18.572.332.852.508a98.609 98.609 0 004.908 2.892c.3.164.604.324.904.484 1.64.88 3.312 1.704 5.004 2.488.568.264 1.14.524 1.716.776 1.632.72 3.28 1.404 4.956 2.04.288.108.572.232.86.34a98.172 98.172 0 005.88 1.944c.532.16 1.068.304 1.6.456 1.64.46 3.3.884 4.976 1.26.432.096.86.208 1.296.3a101.9 101.9 0 006.2 1.112c.436.064.876.108 1.312.168 1.696.228 3.404.408 5.128.548.58.048 1.156.096 1.736.132 2.112.14 4.24.232 6.392.232s4.28-.092 6.396-.228c.58-.036 1.156-.084 1.736-.132 1.72-.14 3.432-.32 5.128-.548.436-.06.876-.104 1.312-.168a98.901 98.901 0 006.2-1.112c.432-.092.864-.2 1.296-.3 1.676-.38 3.332-.8 4.976-1.26.536-.152 1.068-.296 1.6-.456a101.119 101.119 0 005.88-1.944c.288-.108.572-.228.86-.34 1.676-.636 3.324-1.32 4.956-2.04a102.13 102.13 0 006.72-3.264c.3-.16.604-.32.904-.484 1.668-.916 3.3-1.888 4.908-2.892.28-.176.576-.324.856-.504 59.14 18.504 105.052 66.708 120.516 126.508-22.768 26.976-51.652 48.62-84.516 62.748zM144 172c0-50.728 41.272-92 92-92s92 41.272 92 92c0 32.3-16.744 60.744-41.996 77.164-1.32.86-2.66 1.68-4.016 2.468-.484.28-.964.564-1.452.836a89.575 89.575 0 01-5.076 2.624c-.396.188-.8.36-1.2.544a91.019 91.019 0 01-4.46 1.904c-.468.184-.928.376-1.4.552a89.757 89.757 0 01-5.52 1.892c-.348.108-.7.196-1.048.3-1.62.476-3.252.9-4.896 1.284-.464.108-.932.22-1.4.324-1.944.42-3.896.792-5.868 1.088-.256.04-.516.064-.772.1a89.215 89.215 0 01-5.272.58A92.558 92.558 0 01236 264a92.558 92.558 0 01-7.624-.34 92.322 92.322 0 01-5.272-.58c-.256-.036-.516-.06-.772-.1a93.488 93.488 0 01-5.868-1.088c-.468-.1-.932-.216-1.4-.324a93.646 93.646 0 01-4.896-1.284c-.348-.104-.7-.192-1.048-.3a89.757 89.757 0 01-5.52-1.892c-.472-.176-.932-.368-1.4-.552a92.708 92.708 0 01-4.46-1.904c-.4-.184-.804-.356-1.2-.544a90.949 90.949 0 01-5.076-2.624c-.488-.272-.968-.556-1.452-.836a92.374 92.374 0 01-4.016-2.468C160.744 232.744 144 204.3 144 172zm272.356 203.24c-16.964-57.972-61.46-104.704-118.676-124.616C320.988 232.304 336 203.88 336 172c0-55.14-44.86-100-100-100s-100 44.86-100 100c0 31.88 15.012 60.304 38.324 78.628-57.22 19.912-101.716 66.64-118.68 124.612C25.816 336.692 8 288.4 8 236 8 110.28 110.28 8 236 8s228 102.28 228 228c0 52.4-17.816 100.692-47.644 139.24z"/></symbol><symbol viewBox="0 0 128 128" id="window" xmlns="http://www.w3.org/2000/svg"><path d="M111.48 14.64H16.52a1.75 1.75 0 00-1.75 1.75v95.22a1.75 1.75 0 001.75 1.75h94.96a1.75 1.75 0 001.75-1.75V16.39a1.75 1.75 0 00-1.75-1.75zm-1.75 95.22H18.27V18.14h91.46z"/><path d="M23.52 106.36h80.96a1.75 1.75 0 001.75-1.75V23.52a1.75 1.75 0 00-1.75-1.75H23.52a1.75 1.75 0 00-1.75 1.75v81.09a1.75 1.75 0 001.75 1.75zm38.73-45.73V25.27h3.5v35.36a1.75 1.75 0 001.75 1.75h35.23v3.5H67.5a1.75 1.75 0 00-1.75 1.75v35.23h-3.5V67.63a1.75 1.75 0 00-1.75-1.75H25.27v-3.5H60.5a1.75 1.75 0 001.75-1.75zm-36.98 8.75h33.48v33.48H25.27zm43.98 33.48V69.38h33.48v33.48zm33.48-43.98H69.25V25.27h33.48zM58.75 25.27v33.61H25.27V25.27z"/><path d="M32.828 37.283l4.636-4.636a1.75 1.75 0 10-2.474-2.475l-4.636 4.637a1.749 1.749 0 002.474 2.474zm.162 9.182a1.75 1.75 0 002.474 0l11.182-11.182a1.749 1.749 0 00-2.474-2.474L32.99 43.99a1.749 1.749 0 000 2.475zm48.02 29.726a1.749 1.749 0 00-2.474-2.474L73.9 78.353a1.75 1.75 0 102.474 2.475zm6.707.162L76.536 87.535a1.75 1.75 0 002.474 2.475l11.182-11.182a1.75 1.75 0 10-2.475-2.475z"/></symbol></svg>