<svg width="62" height="63" viewBox="0 0 62 63" fill="none" xmlns="http://www.w3.org/2000/svg">
<rect opacity="0.58" width="62" height="62" fill="white"/>
<path d="M59.0695 21.6025L42.7789 31.3129C41.5762 32.0298 41.0945 33.5047 41.5796 34.771C40.8532 35.0757 40.0403 35.09 39.2957 34.8023L37.1883 33.9743C36.3476 33.6439 35.44 33.5864 34.564 33.8082L31.3351 34.6253C31.2099 34.657 31.0872 34.694 30.9672 34.736C28.9946 33.6099 27.8195 33.2732 25.7379 34.0781L23.8691 34.8006C22.9859 35.1419 22.0122 35.0609 21.1957 34.5773L20.5714 34.2093C20.7505 33.0924 20.2492 31.9258 19.2212 31.3131L2.9306 21.6025C1.63889 20.8329 0 21.7619 0 23.2675V41.4524C0 42.7081 0.670013 43.8875 1.7486 44.5303L8.86142 48.7702C10.1845 49.5587 11.8853 49.1498 12.7088 47.8641L13.0129 48.0435L12.0906 49.3282C11.0605 50.7628 11.388 52.7576 12.8229 53.7879C13.5321 54.2971 14.3965 54.4891 15.2434 54.3387C15.3731 55.1957 15.8347 55.9501 16.5394 56.456C17.2467 56.9638 18.1165 57.1549 18.9611 57.0051C19.0855 57.8278 19.5281 58.6017 20.2559 59.1241C21.2365 59.828 22.4524 59.8854 23.4394 59.4399C23.6566 60.0418 24.0495 60.5638 24.5804 60.945C25.9596 61.9351 27.8722 61.6678 28.9298 60.3573L31.3189 61.7727C31.8288 62.0748 32.3893 62.2184 32.9428 62.2184C34.0356 62.2184 35.1019 61.6585 35.6981 60.652C35.9499 60.227 36.0917 59.7668 36.1319 59.3048L36.2249 59.3599C36.9596 59.7951 37.8198 59.9184 38.6467 59.7065C39.4739 59.4948 40.1691 58.9736 40.6041 58.2392C40.8732 57.7851 41.0229 57.283 41.0481 56.7705C41.5804 56.9192 42.1449 56.9261 42.6948 56.7855C43.522 56.5739 44.2172 56.0527 44.6523 55.3182C44.9055 54.891 45.0531 54.4213 45.0904 53.9402C46.5401 54.5538 48.2604 54.0153 49.0842 52.6249C49.8077 51.4038 49.6223 49.8919 48.7306 48.8804L49.6669 48.3334C50.5547 49.2296 51.9836 49.4585 53.1388 48.7701L54.8584 47.745C55.2893 47.4882 55.4304 46.9307 55.1736 46.4999C54.9166 46.0688 54.3587 45.928 53.9285 46.1847L52.2089 47.2098C51.8035 47.4516 51.3099 47.3779 50.9918 47.0869C50.9859 47.0358 43.3515 34.2774 43.3515 34.2774C43.0639 33.792 43.2243 33.162 43.7089 32.8731L59.9995 23.1627C60.0826 23.1138 60.1837 23.1722 60.1837 23.2673V41.4523C60.1837 42.0714 59.8532 42.653 59.3215 42.9699L57.6045 43.9934C57.1736 44.2503 57.0325 44.8078 57.2893 45.2385C57.546 45.6695 58.1039 45.8101 58.5344 45.5537L60.2514 44.5302C61.33 43.8873 62 42.708 62 41.4523V23.2675C62.0001 21.764 60.3628 20.8315 59.0695 21.6025ZM35.0095 35.569C35.515 35.4412 36.0388 35.4743 36.5241 35.6649L38.6361 36.4947C39.8967 36.9821 41.2734 36.9286 42.4744 36.3612L48.6671 46.8141L47.6636 47.4004C47.4812 47.5084 47.3063 47.6281 47.14 47.7586L33.8958 39.9155C33.615 39.7492 33.2666 39.7464 32.9833 39.9079C32.6999 40.0695 32.5249 40.3706 32.5249 40.697V40.8795C32.5249 41.5255 32.2732 42.1329 31.8162 42.5896C31.3596 43.046 30.7527 43.2971 30.1074 43.2971C30.0025 43.2933 29.9101 43.2091 29.91 43.0997V38.7894C29.91 37.8503 30.4356 37.0121 31.2401 36.5923C31.28 36.5762 31.319 36.5572 31.3566 36.5354C31.4912 36.4738 31.633 36.4237 31.7806 36.3863L35.0095 35.569ZM10.5699 47.3229C10.3039 47.3902 10.0273 47.3506 9.79142 47.2098L2.6786 42.9701C2.14675 42.653 1.81641 42.0715 1.81641 41.4524V23.2675C1.81641 23.2481 1.81641 23.1966 1.87805 23.1616C1.90105 23.1485 1.92176 23.1439 1.93944 23.1439C1.96899 23.1439 1.99018 23.1565 2.00059 23.1627L18.2914 32.8731C18.776 33.162 18.9364 33.792 18.6487 34.2776L11.1995 46.8516C11.0596 47.0877 10.836 47.2552 10.5699 47.3229ZM14.9101 52.5529C14.5465 52.6128 14.1816 52.5272 13.8821 52.3123C13.5829 52.0975 13.3851 51.779 13.3254 51.4155C13.2657 51.0519 13.3511 50.6869 13.566 50.3877L14.8617 48.5828C14.8933 48.5387 14.9273 48.4971 14.9629 48.458C14.9897 48.4339 15.0153 48.4079 15.0395 48.3803C15.5102 47.9394 16.2434 47.8768 16.7867 48.2667C17.4045 48.7103 17.5463 49.5738 17.1027 50.1916C17.102 50.1926 17.1013 50.1937 17.1005 50.1946L15.8069 51.9965C15.5922 52.2956 15.2736 52.4932 14.9101 52.5529ZM17.5986 54.9804C17.2994 54.7656 17.1016 54.4471 17.0419 54.0836C16.9822 53.7199 17.0676 53.3549 17.2825 53.0557L18.5782 51.2508C18.5782 51.2508 18.5782 51.2507 18.5784 51.2507L20.0082 49.2589C20.2231 48.9596 20.5415 48.762 20.9052 48.7022C20.9809 48.6897 21.0564 48.6836 21.1316 48.6836C21.4178 48.6836 21.696 48.7726 21.9331 48.9429C22.551 49.3863 22.6928 50.2499 22.2492 50.8678L19.5234 54.6646C19.0798 55.2823 18.2163 55.4236 17.5986 54.9804ZM22.3429 57.8891C21.9795 57.9488 21.6144 57.8633 21.3151 57.6485C20.6973 57.205 20.5555 56.3415 20.999 55.7237C20.9998 55.7226 21.0005 55.7216 21.0012 55.7205L23.7249 51.9268C24.1683 51.3088 25.0318 51.1674 25.6498 51.6107C25.949 51.8255 26.1467 52.144 26.2064 52.5077C26.2661 52.8712 26.1806 53.2363 25.9658 53.5355L23.24 57.3323C23.0251 57.6316 22.7065 57.8294 22.3429 57.8891ZM25.6396 59.4694C25.3404 59.2545 25.1426 58.9361 25.0829 58.5724C25.0232 58.2089 25.1086 57.8439 25.3235 57.5447C25.3245 57.5434 25.3254 57.5421 25.3262 57.5408L26.2309 56.2807C26.6748 55.6641 27.5374 55.5228 28.1547 55.966C28.7725 56.4095 28.9143 57.2731 28.4708 57.8909L27.9525 58.6129C27.947 58.6201 27.9417 58.6276 27.9365 58.6351L27.5644 59.1535C27.1211 59.7711 26.2577 59.913 25.6396 59.4694ZM47.5215 51.6991C47.1337 52.3536 46.2851 52.5707 45.6311 52.1829L43.5315 50.9391C43.5305 50.9386 43.5297 50.938 43.5287 50.9376L37.0259 47.0851C36.5942 46.8294 36.0372 46.972 35.7817 47.4034C35.5261 47.835 35.6685 48.3922 36.1001 48.6477L42.6057 52.5018C42.6057 52.5018 42.6057 52.5018 42.6058 52.502L42.6067 52.5024C43.2606 52.8906 43.4772 53.7382 43.0897 54.3925C42.9018 54.7096 42.6017 54.9346 42.2446 55.0259C41.8875 55.1172 41.5161 55.0643 41.199 54.8763L39.4875 53.8625C39.4861 53.8616 39.4849 53.8608 39.4834 53.8599C39.4826 53.8594 39.4816 53.8588 39.4808 53.8583L34.6902 51.0203C34.2585 50.7645 33.7015 50.9072 33.4459 51.3386C33.1903 51.7702 33.3327 52.3273 33.7643 52.5829L38.555 55.4211C38.556 55.4217 38.5569 55.4223 38.5578 55.4228C38.8748 55.6106 39.0999 55.9106 39.1912 56.2677C39.2826 56.6249 39.2294 56.9962 39.0415 57.3134C38.8537 57.6305 38.5537 57.8555 38.1964 57.9468C37.8395 58.0383 37.4679 57.9851 37.1509 57.7973L34.5824 56.2756C34.5807 56.2747 34.5791 56.2736 34.5775 56.2726L32.6991 55.1599C32.2678 54.9045 31.7106 55.0468 31.4549 55.4785C31.1994 55.9099 31.3418 56.4671 31.7735 56.7227L33.6518 57.8354L33.6543 57.8369C34.3071 58.2253 34.5232 59.0722 34.1359 59.7261C33.7478 60.3807 32.8997 60.5976 32.2453 60.2101L29.997 58.8782C30.9632 57.4523 30.6221 55.501 29.2145 54.4903C28.7843 54.1815 28.3027 53.9953 27.8115 53.9246C28.0288 53.3875 28.0954 52.7997 27.9991 52.2135C27.8608 51.3712 27.4027 50.6331 26.7093 50.1353C25.9817 49.613 25.1069 49.4411 24.2876 49.5863C24.1632 48.7635 23.7206 47.9896 22.9928 47.4672C22.2993 46.9694 21.4539 46.7716 20.6113 46.9097C19.9077 47.0252 19.2771 47.3638 18.7983 47.8763C18.5752 47.459 18.2559 47.0852 17.8463 46.7911C16.761 46.0119 15.3483 46.0124 14.2805 46.6824L13.6365 46.3023L19.8157 35.8721L20.272 36.1411C21.0394 36.5958 21.8954 36.8265 22.7578 36.8265C23.3527 36.8265 23.9507 36.7166 24.5246 36.4948L26.3933 35.7723C27.5104 35.3408 28.1103 35.3203 29.2381 35.869C28.5211 36.6426 28.0939 37.675 28.0939 38.7894V43.0997C28.0939 44.2093 28.996 45.1127 30.1048 45.1135H30.1076C31.238 45.1135 32.3009 44.6735 33.1006 43.8744C33.5859 43.3894 33.939 42.8073 34.1418 42.172L46.7918 49.6632C46.8336 49.688 46.8767 49.7089 46.9208 49.7264C46.9571 49.7564 46.9961 49.784 47.038 49.8088C47.6921 50.1966 47.9093 51.0446 47.5215 51.6991Z" fill="#CB8734"/>
<path d="M20.589 24.6646H41.4105C43.2957 24.6646 44.8294 23.1309 44.8294 21.2457V8.85755C44.8294 6.97236 43.2957 5.4387 41.4105 5.4387H36.3982V3.99962C36.3982 2.34572 35.0528 1 33.3991 1H28.6002C26.9466 1 25.6011 2.3456 25.6011 3.99962V5.4387H20.5888C18.7036 5.4387 17.1699 6.97236 17.1699 8.85755V15.6818C17.1699 16.1835 17.5766 16.59 18.0781 16.59C18.5797 16.59 18.9863 16.1835 18.9863 15.6818V13.9939C19.9529 14.8613 21.2297 15.3896 22.6275 15.3896H23.3383V16.3886C23.3383 16.8903 23.745 17.2968 24.2465 17.2968C24.7481 17.2968 25.1547 16.8903 25.1547 16.3886V15.3896H36.8443V16.3886C36.8443 16.8903 37.2508 17.2968 37.7525 17.2968C38.2542 17.2968 38.6607 16.8903 38.6607 16.3886V15.3896H39.3714C40.7693 15.3896 42.0461 14.8613 43.0127 13.9939V21.2456C43.0127 22.1292 42.2938 22.848 41.4103 22.848H20.589C19.7054 22.848 18.9866 22.1291 18.9866 21.2456V19.9276C18.9866 19.4259 18.5799 19.0194 18.0784 19.0194C17.5768 19.0194 17.1702 19.4259 17.1702 19.9276V21.2456C17.1702 23.1309 18.7038 24.6646 20.589 24.6646ZM27.4177 3.99962C27.4177 3.34716 27.9483 2.81641 28.6005 2.81641H33.3993C34.0515 2.81641 34.582 3.34716 34.582 3.99962V5.4387H27.4179V3.99962H27.4177ZM39.3718 13.5732H38.6611V12.5742C38.6611 12.0725 38.2546 11.666 37.7529 11.666C37.2512 11.666 36.8447 12.0725 36.8447 12.5742V13.5732H25.1551V12.5742C25.1551 12.0725 24.7485 11.666 24.2469 11.666C23.7453 11.666 23.3387 12.0725 23.3387 12.5742V13.5732H22.6279C20.6201 13.5732 18.9867 11.9398 18.9867 9.93201V8.85755C18.9867 7.97392 19.7055 7.25511 20.5891 7.25511H41.4106C42.2943 7.25511 43.0131 7.97405 43.0131 8.85755V9.93201C43.0131 11.9398 41.3796 13.5732 39.3718 13.5732Z" fill="#CB8734"/>
</svg>
